<svg width="44" height="47" fill="none" xmlns="http://www.w3.org/2000/svg"><path d="M22 11.285c-6.213 0-11.269 5.316-11.269 11.85S15.787 34.985 22 34.985s11.269-5.316 11.269-11.85S28.213 11.285 22 11.285ZM22 9.306c.39 0 .706-.333.706-.743V.743C22.706.332 22.39 0 22 0c-.39 0-.706.333-.706.742v7.821c0 .41.316.743.706.743ZM22 36.963c-.39 0-.706.332-.706.742v7.821c0 .41.316.743.706.743.39 0 .706-.333.706-.743v-7.82c0-.41-.316-.743-.706-.743ZM11.704 13.356a.687.687 0 0 0 .499.218c.18 0 .361-.073.5-.218a.769.769 0 0 0 0-1.05l-5.26-5.53a.681.681 0 0 0-.999 0 .769.769 0 0 0 0 1.05l5.26 5.53ZM32.298 32.913a.681.681 0 0 0-.999 0 .769.769 0 0 0 0 1.05l5.26 5.53a.687.687 0 0 0 .5.217c.18 0 .36-.072.498-.217a.769.769 0 0 0 0-1.05l-5.26-5.53ZM31.798 13.574c.18 0 .361-.073.5-.218l5.258-5.53a.769.769 0 0 0 0-1.05.681.681 0 0 0-.998 0l-5.26 5.53a.769.769 0 0 0 0 1.05.69.69 0 0 0 .5.218ZM11.704 32.913l-5.26 5.53a.769.769 0 0 0 0 1.05.687.687 0 0 0 .5.217c.18 0 .36-.072.499-.217l5.26-5.53a.769.769 0 0 0 0-1.05.681.681 0 0 0-1 0ZM43.294 22.392h-7.437c-.39 0-.706.332-.706.742s.316.743.706.743h7.437c.39 0 .706-.333.706-.743s-.316-.742-.706-.742ZM8.85 23.134c0-.41-.316-.742-.706-.742H.706c-.39 0-.706.332-.706.742s.316.743.706.743h7.437c.39 0 .707-.332.707-.743Z" fill="#4F4F4F"/></svg>