<svg width="46" height="39" fill="none" xmlns="http://www.w3.org/2000/svg"><path d="M23 0C14.422 0 6.551 3.098.412 8.098c-.221.181-.366.45-.403.746-.037.297.038.597.207.834.169.238.418.394.694.433.276.04.555-.04.776-.222C7.47 5.178 14.89 2.25 23 2.25s15.529 2.929 21.314 7.64c.221.182.5.262.776.222.276-.04.525-.195.694-.433.17-.237.244-.537.207-.834a1.148 1.148 0 0 0-.403-.746C39.448 3.098 31.578 0 23 0Zm0 10.68c-6.147 0-11.878 2-16.333 5.866a1.089 1.089 0 0 0-.309.33 1.207 1.207 0 0 0-.135.904c.038.153.105.295.198.418.092.122.207.223.338.295a.99.99 0 0 0 .85.048c.137-.057.261-.144.365-.256 4.048-3.512 9.301-5.357 15.026-5.357s10.978 1.845 15.026 5.357c.104.112.228.199.365.256a.98.98 0 0 0 .85-.048c.131-.072.246-.173.338-.295.093-.123.16-.265.197-.418a1.207 1.207 0 0 0-.135-.904 1.089 1.089 0 0 0-.308-.33C34.878 12.681 29.147 10.68 23 10.68Zm0 10.117c-3.753 0-7.319 1.264-10.061 3.6a1.193 1.193 0 0 0-.168 1.587c.173.235.425.387.701.422a1 1 0 0 0 .774-.234c2.34-1.995 5.443-3.127 8.754-3.127 3.31 0 6.413 1.132 8.754 3.127a1 1 0 0 0 1.475-.188 1.193 1.193 0 0 0-.168-1.586c-2.742-2.337-6.308-3.6-10.061-3.6Zm0 10.68c-1.732 0-3.136 1.51-3.136 3.372 0 1.863 1.404 3.373 3.136 3.373 1.732 0 3.136-1.51 3.136-3.373 0-1.862-1.404-3.372-3.136-3.372Z" fill="#4F4F4F"/></svg>