<svg width="93" height="47" viewBox="0 0 93 47" fill="none" xmlns="http://www.w3.org/2000/svg">
<path d="M45 13H92.6707V12H45V13Z" fill="#333333"/>
<path d="M74.7978 1.19533L92.5595 12.9999L93 11.8045L75.2384 0L74.7978 1.19533Z" fill="#333333"/>
<path d="M48 1L0.329261 1L0.329261 2.07692L48 2.07693V1Z" fill="#0C797A"/>
<path d="M18.2022 13.7127L0.440509 1.00016L0 2.28744L17.7616 15L18.2022 13.7127Z" fill="#0C797A"/>
<path d="M48.6719 35.625L46.0938 45.2031H45.25L47.8281 35.625H48.6719Z" fill="#0C797A"/>
<path d="M29 41.1591C28.1439 41.1591 27.4148 40.9261 26.8125 40.4602C26.2102 39.9905 25.75 39.3106 25.4318 38.4205C25.1136 37.5265 24.9545 36.447 24.9545 35.1818C24.9545 33.9242 25.1136 32.8504 25.4318 31.9602C25.7538 31.0663 26.2159 30.3845 26.8182 29.9148C27.4242 29.4413 28.1515 29.2045 29 29.2045C29.8485 29.2045 30.5739 29.4413 31.1761 29.9148C31.7822 30.3845 32.2443 31.0663 32.5625 31.9602C32.8845 32.8504 33.0455 33.9242 33.0455 35.1818C33.0455 36.447 32.8864 37.5265 32.5682 38.4205C32.25 39.3106 31.7898 39.9905 31.1875 40.4602C30.5852 40.9261 29.8561 41.1591 29 41.1591ZM29 39.9091C29.8485 39.9091 30.5076 39.5 30.9773 38.6818C31.447 37.8636 31.6818 36.697 31.6818 35.1818C31.6818 34.1742 31.5739 33.3163 31.358 32.608C31.1458 31.8996 30.839 31.3598 30.4375 30.9886C30.0398 30.6174 29.5606 30.4318 29 30.4318C28.1591 30.4318 27.5019 30.8466 27.0284 31.6761C26.5549 32.5019 26.3182 33.6705 26.3182 35.1818C26.3182 36.1894 26.4242 37.0455 26.6364 37.75C26.8485 38.4545 27.1534 38.9905 27.5511 39.358C27.9527 39.7254 28.4356 39.9091 29 39.9091ZM39.2955 29.3636V41H37.8864V30.8409H37.8182L34.9773 32.7273V31.2955L37.8864 29.3636H39.2955Z" fill="#333333"/>
<path d="M56.4375 45.1094C55.849 45.1094 55.3477 44.9492 54.9336 44.6289C54.5195 44.306 54.2031 43.8385 53.9844 43.2266C53.7656 42.612 53.6563 41.8698 53.6563 41C53.6563 40.1354 53.7656 39.3971 53.9844 38.7852C54.2057 38.1706 54.5234 37.7018 54.9375 37.3789C55.3542 37.0534 55.8542 36.8906 56.4375 36.8906C57.0208 36.8906 57.5195 37.0534 57.9336 37.3789C58.3503 37.7018 58.668 38.1706 58.8867 38.7852C59.1081 39.3971 59.2188 40.1354 59.2188 41C59.2188 41.8698 59.1094 42.612 58.8906 43.2266C58.6719 43.8385 58.3555 44.306 57.9414 44.6289C57.5273 44.9492 57.026 45.1094 56.4375 45.1094ZM56.4375 44.25C57.0208 44.25 57.474 43.9687 57.7969 43.4062C58.1198 42.8437 58.2813 42.0417 58.2813 41C58.2813 40.3073 58.207 39.7174 58.0586 39.2305C57.9128 38.7435 57.7018 38.3724 57.4258 38.1172C57.1523 37.862 56.8229 37.7344 56.4375 37.7344C55.8594 37.7344 55.4076 38.0195 55.082 38.5898C54.7565 39.1576 54.5938 39.9609 54.5938 41C54.5938 41.6927 54.6667 42.2812 54.8125 42.7656C54.9583 43.25 55.168 43.6185 55.4414 43.8711C55.7174 44.1237 56.0495 44.25 56.4375 44.25ZM63.4063 45.1094C62.8906 45.1094 62.431 45.0208 62.0273 44.8437C61.6263 44.6667 61.3073 44.4206 61.0703 44.1055C60.8359 43.7878 60.7083 43.4193 60.6875 43H61.6719C61.6927 43.2578 61.7813 43.4805 61.9375 43.668C62.0938 43.8529 62.2982 43.9961 62.5508 44.0977C62.8034 44.1992 63.0833 44.25 63.3906 44.25C63.7344 44.25 64.0391 44.1901 64.3047 44.0703C64.5703 43.9505 64.7786 43.7839 64.9297 43.5703C65.0807 43.3568 65.1563 43.1094 65.1563 42.8281C65.1563 42.5339 65.0833 42.2747 64.9375 42.0508C64.7917 41.8242 64.5781 41.6471 64.2969 41.5195C64.0156 41.3919 63.6719 41.3281 63.2656 41.3281H62.625V40.4687H63.2656C63.5833 40.4687 63.862 40.4115 64.1016 40.2969C64.3438 40.1823 64.5326 40.0208 64.668 39.8125C64.806 39.6042 64.875 39.3594 64.875 39.0781C64.875 38.8073 64.8151 38.5716 64.6953 38.3711C64.5755 38.1706 64.4063 38.0143 64.1875 37.9023C63.9714 37.7904 63.7161 37.7344 63.4219 37.7344C63.1458 37.7344 62.8854 37.7852 62.6406 37.8867C62.3984 37.9857 62.2005 38.1302 62.0469 38.3203C61.8932 38.5078 61.8099 38.7344 61.7969 39H60.8594C60.875 38.5807 61.0013 38.2135 61.2383 37.8984C61.4753 37.5807 61.7852 37.3333 62.168 37.1562C62.5534 36.9792 62.9766 36.8906 63.4375 36.8906C63.9323 36.8906 64.3568 36.9909 64.7109 37.1914C65.0651 37.3893 65.3372 37.651 65.5273 37.9766C65.7174 38.3021 65.8125 38.6536 65.8125 39.0313C65.8125 39.4818 65.694 39.8659 65.457 40.1836C65.2227 40.5013 64.9036 40.7214 64.5 40.8438V40.9062C65.0052 40.9896 65.3997 41.2044 65.6836 41.5508C65.9674 41.8945 66.1094 42.3203 66.1094 42.8281C66.1094 43.263 65.9909 43.6536 65.7539 44C65.5195 44.3437 65.1992 44.6146 64.793 44.8125C64.3867 45.0104 63.9245 45.1094 63.4063 45.1094Z" fill="#0C797A"/>
</svg>
