<svg width="44" height="47" viewBox="0 0 44 47" fill="none" xmlns="http://www.w3.org/2000/svg">
<path d="M22 11.2851C15.7868 11.2851 10.7313 16.6013 10.7313 23.1351C10.7313 29.6688 15.7868 34.9843 22 34.9843C28.2132 34.9843 33.2687 29.6688 33.2687 23.1351C33.2687 16.6013 28.2132 11.2851 22 11.2851Z" fill="#4F4F4F"/>
<path d="M22.0002 9.30582C22.3899 9.30582 22.7061 8.97323 22.7061 8.56343V0.742387C22.7061 0.332589 22.3899 0 22.0002 0C21.6105 0 21.2942 0.332589 21.2942 0.742387V8.56343C21.2942 8.97323 21.6105 9.30582 22.0002 9.30582Z" fill="#4F4F4F"/>
<path d="M22.0002 36.9627C21.6105 36.9627 21.2942 37.2953 21.2942 37.7051V45.5262C21.2942 45.936 21.6105 46.2686 22.0002 46.2686C22.3899 46.2686 22.7061 45.936 22.7061 45.5262V37.7051C22.7061 37.2953 22.3899 36.9627 22.0002 36.9627Z" fill="#4F4F4F"/>
<path d="M11.7038 13.3563C11.8415 13.501 12.0222 13.5738 12.2029 13.5738C12.3837 13.5738 12.5644 13.501 12.7021 13.3563C12.9781 13.066 12.9781 12.5968 12.7021 12.3065L7.44259 6.77648C7.16656 6.48621 6.72038 6.48621 6.44435 6.77648C6.16832 7.06675 6.16832 7.53594 6.44435 7.82621L11.7038 13.3563Z" fill="#4F4F4F"/>
<path d="M32.2978 32.913C32.0217 32.6227 31.5756 32.6227 31.2995 32.913C31.0235 33.2032 31.0235 33.6724 31.2995 33.9627L36.559 39.4927C36.6967 39.6375 36.8774 39.7103 37.0581 39.7103C37.2388 39.7103 37.4196 39.6375 37.5572 39.4927C37.8333 39.2025 37.8333 38.7333 37.5572 38.443L32.2978 32.913Z" fill="#4F4F4F"/>
<path d="M31.798 13.5738C31.9787 13.5738 32.1594 13.501 32.2971 13.3563L37.5565 7.82621C37.8326 7.53594 37.8326 7.06675 37.5565 6.77648C37.2805 6.48621 36.8343 6.48621 36.5583 6.77648L31.2988 12.3065C31.0228 12.5968 31.0228 13.066 31.2988 13.3563C31.4372 13.501 31.6179 13.5738 31.798 13.5738Z" fill="#4F4F4F"/>
<path d="M11.7038 32.913L6.44435 38.443C6.16832 38.7333 6.16832 39.2025 6.44435 39.4927C6.58201 39.6375 6.76274 39.7103 6.94347 39.7103C7.1242 39.7103 7.30493 39.6375 7.44259 39.4927L12.7021 33.9627C12.9781 33.6724 12.9781 33.2032 12.7021 32.913C12.426 32.6227 11.9791 32.6227 11.7038 32.913Z" fill="#4F4F4F"/>
<path d="M43.294 22.3919H35.8567C35.467 22.3919 35.1507 22.7244 35.1507 23.1342C35.1507 23.544 35.467 23.8766 35.8567 23.8766H43.294C43.6837 23.8766 44 23.544 44 23.1342C44 22.7244 43.6837 22.3919 43.294 22.3919Z" fill="#4F4F4F"/>
<path d="M8.85003 23.1342C8.85003 22.7244 8.53376 22.3919 8.14406 22.3919H0.705969C0.316274 22.3919 0 22.7244 0 23.1342C0 23.544 0.316274 23.8766 0.705969 23.8766H8.14335C8.53376 23.8766 8.85003 23.5448 8.85003 23.1342Z" fill="#4F4F4F"/>
</svg>
