<svg width="46" height="43" viewBox="0 0 46 43" fill="none" xmlns="http://www.w3.org/2000/svg">
<path d="M27.2791 0L11.7006 11.673H0V30.5721H11.7006L27.2791 42.2451V0ZM38.4281 5.54119C38.1964 5.55552 37.9756 5.64772 37.7987 5.80389C37.6219 5.96006 37.4988 6.17173 37.4478 6.40699C37.3969 6.64225 37.421 6.88834 37.5164 7.10815C37.6118 7.32797 37.7733 7.5096 37.9767 7.62565C41.2399 9.55629 43.8605 14.8108 43.8605 21.1225C43.8605 27.4343 41.24 32.6713 37.9767 34.602C37.7321 34.7502 37.5539 34.993 37.4811 35.2774C37.4083 35.5617 37.4468 35.8645 37.5882 36.1194C37.7297 36.3743 37.9625 36.5606 38.2358 36.6376C38.5091 36.7146 38.8006 36.6759 39.0465 36.5302C43.2789 34.026 46 28.0555 46 21.1225C46 14.1895 43.2789 8.20159 39.0465 5.69752C38.8604 5.58142 38.6447 5.52689 38.4281 5.54119ZM32.8452 9.98804C32.6122 9.99898 32.3891 10.0887 32.2097 10.2436C32.0304 10.3985 31.9046 10.6101 31.8516 10.8461C31.7986 11.0821 31.8213 11.3296 31.9162 11.551C32.0111 11.7724 32.1729 11.9555 32.3772 12.0725C34.3866 13.3071 36.1381 16.837 36.1381 21.1225C36.1381 25.4082 34.3866 28.9206 32.3772 30.1552C32.2547 30.229 32.1474 30.3272 32.0615 30.4441C31.9756 30.5611 31.9128 30.6946 31.8766 30.8369C31.8405 30.9791 31.8318 31.1274 31.851 31.2732C31.8702 31.419 31.9169 31.5594 31.9884 31.6864C32.06 31.8134 32.155 31.9244 32.2679 32.0132C32.3809 32.1019 32.5096 32.1665 32.6467 32.2034C32.7838 32.2403 32.9265 32.2487 33.0667 32.2281C33.2069 32.2074 33.3418 32.1583 33.4637 32.0833C36.4513 30.2477 38.2776 26.0064 38.2776 21.1225C38.2776 16.2387 36.4513 11.98 33.4637 10.1444C33.2775 10.0283 33.0618 9.97374 32.8452 9.98804Z" fill="#4F4F4F"/>
</svg>
