<svg width="46" height="39" viewBox="0 0 46 39" fill="none" xmlns="http://www.w3.org/2000/svg">
<path d="M23 0C14.4221 0 6.55119 3.09781 0.411638 8.0975C0.190719 8.27919 0.0459588 8.54781 0.00920269 8.84428C-0.0275534 9.14075 0.0467058 9.44077 0.215644 9.67836C0.384582 9.91595 0.634361 10.0716 0.910031 10.1112C1.1857 10.1507 1.46468 10.0708 1.6856 9.88914C7.47142 5.17752 14.8902 2.24833 23 2.24833C31.1098 2.24833 38.5286 5.17752 44.3144 9.88914C44.5353 10.0708 44.8143 10.1507 45.09 10.1112C45.3656 10.0716 45.6154 9.91595 45.7844 9.67836C45.9533 9.44077 46.0275 9.14075 45.9908 8.84428C45.954 8.54781 45.8093 8.27919 45.5884 8.0975C39.4488 3.09781 31.5778 0 23 0ZM23 10.6796C16.8533 10.6796 11.1223 12.6805 6.66713 16.5463C6.54386 16.6318 6.4387 16.7443 6.35848 16.8763C6.27827 17.0084 6.2248 17.1572 6.20156 17.3129C6.17831 17.4687 6.1858 17.628 6.22355 17.7804C6.26129 17.9329 6.32844 18.0751 6.42064 18.1978C6.51284 18.3204 6.62801 18.4209 6.75868 18.4926C6.88934 18.5643 7.03257 18.6056 7.17906 18.6139C7.32555 18.6221 7.47201 18.5971 7.60892 18.5405C7.74584 18.4839 7.87014 18.3969 7.97376 18.2853C12.0217 14.7728 17.2751 12.9279 23 12.9279C28.7249 12.9279 33.9783 14.7728 38.0262 18.2853C38.1299 18.3969 38.2542 18.4839 38.3911 18.5405C38.528 18.5971 38.6744 18.6221 38.8209 18.6139C38.9674 18.6056 39.1107 18.5643 39.2413 18.4926C39.372 18.4209 39.4872 18.3204 39.5794 18.1978C39.6716 18.0751 39.7387 17.9329 39.7765 17.7804C39.8142 17.628 39.8217 17.4687 39.7984 17.3129C39.7752 17.1572 39.7217 17.0084 39.6415 16.8763C39.5613 16.7443 39.4561 16.6318 39.3329 16.5463C34.8777 12.6805 29.1467 10.6796 23 10.6796ZM23 20.7971C19.2465 20.7971 15.6812 22.0612 12.9389 24.3979C12.7216 24.5847 12.5819 24.8566 12.5504 25.1539C12.519 25.4512 12.5983 25.7499 12.7711 25.9844C12.9439 26.219 13.196 26.3705 13.4723 26.4056C13.7487 26.4407 14.0267 26.3567 14.2456 26.172C16.5865 24.1772 19.6893 23.0454 23 23.0454C26.3107 23.0454 29.4135 24.1772 31.7544 26.172C31.9733 26.3567 32.2513 26.4407 32.5277 26.4056C32.804 26.3705 33.0561 26.219 33.2289 25.9844C33.4017 25.7499 33.481 25.4512 33.4496 25.1539C33.4181 24.8566 33.2784 24.5847 33.061 24.3979C30.3188 22.0612 26.7535 20.7971 23 20.7971ZM23 31.4766C21.2681 31.4766 19.8641 32.9865 19.8641 34.8491C19.8641 36.7117 21.2681 38.2216 23 38.2216C24.7319 38.2216 26.1359 36.7117 26.1359 34.8491C26.1359 32.9865 24.7319 31.4766 23 31.4766Z" fill="#4F4F4F"/>
</svg>
